<svg width="34" height="16" viewBox="0 0 34 16" fill="none" xmlns="http://www.w3.org/2000/svg">
<path d="M0.19696 8.50997L7.75233 15.3967C7.96225 15.5672 8.19174 15.6 8.44101 15.495C8.69 15.3899 8.81501 15.1998 8.81501 14.9242V10.5168L33.3704 10.5168C33.5541 10.5168 33.705 10.4579 33.823 10.3398C33.9408 10.2218 34 10.0709 34 9.88732V6.10964C34 5.92612 33.9411 5.77519 33.823 5.65734C33.7048 5.53936 33.5539 5.48044 33.3705 5.48044L8.81487 5.48044V1.07307C8.81487 0.81036 8.68966 0.620292 8.4408 0.502584C8.19132 0.397211 7.96184 0.437045 7.75192 0.620292L0.196548 7.58609C0.0653992 7.71717 0 7.87429 0 8.05809C0 8.22818 0.065815 8.37883 0.19696 8.50997Z" fill="#F7F9F8"/>
</svg>
