<svg width="31" height="25" viewBox="0 0 31 25" fill="none" xmlns="http://www.w3.org/2000/svg">
<path d="M15.5001 5.14497L4.44408 14.2595C4.44408 14.2724 4.44085 14.2913 4.43438 14.3171C4.42805 14.3427 4.42468 14.3613 4.42468 14.3745V23.6039C4.42468 23.9371 4.54651 24.2259 4.79011 24.4691C5.03364 24.7124 5.32202 24.8349 5.65533 24.8349H13.0387V17.4511H17.9616V24.8351H25.3448C25.6781 24.8351 25.9669 24.713 26.21 24.4691C26.4536 24.2262 26.5759 23.9372 26.5759 23.6039V14.3745C26.5759 14.3233 26.5689 14.2846 26.5565 14.2595L15.5001 5.14497Z" fill="#5D5D5D"/>
<path d="M30.7861 12.1828L26.5754 8.68324V0.838089C26.5754 0.658742 26.5178 0.51125 26.4021 0.395816C26.2873 0.280516 26.1398 0.222867 25.9601 0.222867H22.2683C22.0888 0.222867 21.9414 0.280516 21.8259 0.395816C21.7106 0.51125 21.6531 0.658809 21.6531 0.838089V4.58754L16.9615 0.664871C16.5517 0.331566 16.0645 0.164948 15.5004 0.164948C14.9364 0.164948 14.4493 0.331566 14.0391 0.664871L0.213664 12.1828C0.0855017 12.2851 0.0152581 12.4229 0.00219267 12.596C-0.0108054 12.769 0.0339808 12.92 0.136686 13.0481L1.32881 14.471C1.43151 14.5863 1.56594 14.6569 1.73262 14.6826C1.88651 14.6956 2.0404 14.6506 2.19429 14.5481L15.5 3.45307L28.8059 14.548C28.9087 14.6375 29.043 14.6821 29.2097 14.6821H29.2675C29.4339 14.6568 29.5681 14.5858 29.6713 14.4708L30.8636 13.048C30.9661 12.9197 31.011 12.7689 30.9977 12.5957C30.9845 12.4231 30.914 12.2853 30.7861 12.1828Z" fill="#5D5D5D"/>
</svg>
